<!-- Generator: Adobe Illustrator 17.1.0, SVG Export Plug-In  -->
<svg version="1.1"
	 xmlns="http://www.w3.org/2000/svg" xmlns:xlink="http://www.w3.org/1999/xlink" xmlns:a="http://ns.adobe.com/AdobeSVGViewerExtensions/3.0/"
	 x="0px" y="0px" width="113.5px" height="117.7px" viewBox="0 0 113.5 117.7" enable-background="new 0 0 113.5 117.7"
	 xml:space="preserve">
<defs>
</defs>
<path fill="#FFFF00" stroke="#000000" stroke-miterlimit="10" d="M95.5,25.4C77.4,11.4,65.2-5.8,48.9,2.8C32.6,11.4,15,20,10.5,26.3
	c-4.5,6.3-10,13.1-10,23.1c0,10,73.3-57.9,14.9,4.1c0,0-9.5,44.3-7.2,47.5c2.3,3.2,100.9,29,103.6,8.2
	C114.5,88.3,113.7,39.5,95.5,25.4z M38.1,58.8c0,0,12.4-4.9,18.7,9.6C63,82.9,47.6,72.8,38.1,58.8z M80.1,70.2
	c10.1-12.1,18.7-4.4,18.7-4.4C85.6,76.5,69.9,82.3,80.1,70.2z"/>
</svg>
