<?xml version="1.0" encoding="utf-8"?>
<!-- Generator: Adobe Illustrator 17.1.0, SVG Export Plug-In . SVG Version: 6.00 Build 0)  -->
<!DOCTYPE svg PUBLIC "-//W3C//DTD SVG 1.1//EN" "http://www.w3.org/Graphics/SVG/1.1/DTD/svg11.dtd">
<svg version="1.1" id="Layer_1" xmlns="http://www.w3.org/2000/svg" xmlns:xlink="http://www.w3.org/1999/xlink" x="0px" y="0px"
	 viewBox="-43.2 798.2 1166.5 363.7" enable-background="new -43.2 798.2 1166.5 363.7" xml:space="preserve">
<g>
	<g id="_x37_1d2Yo.tif_2_">
		<g>
			<path d="M1077.3,957.5c-12.2-47.9-56.1-84.8-141.6-105.8c-60-14.8-123.2-14.1-186.5-7.4c-28.4,3-53.8,9-76.7,16.9
				c0.4,0.1,0.7,0.2,1.1,0.2h0.2c0.5,0.1,1.2,0.4,1.8,1c0.8,0.1,1.5,0.4,2.1,0.8l0.1,0.1l0.1,0.1c4.5,3.5,6.5,8,5.8,13.4
				c-0.2,1.5-0.5,2.8-0.9,4c-0.5,1.3-1,2.4-1.5,3.3c-0.4,0.7-0.8,1.5-1.4,2.4c-1.1,1.7-2.4,3-3.6,4.2l-0.2,0.2c-0.3,0.3-0.7,0.7-1,1
				c-0.4,0.3-0.7,0.7-1.1,1c27.7-12.9,59.2-22.7,96-25.6c62.9-4.9,114.7,6.6,152.6,33.4c28.2,19.9,36.6,43.4,40.1,67.4
				c0.3,2.3,0.5,4.6,0.6,6.9c1.5,23.8-4.5,46.9-29.6,67.4c-50.9,41.9-147.2,40.8-209.2,17.5c-29.9-11.2-51.9-26.1-70.1-42.5
				c-22.5-20.3-43.9-41-65.2-61.6c-0.7,0.5-1.4,1-2.1,1.6c-3.8,2.8-6.7,5.5-9,8.4c0,0.2,0.1,0.5,0.1,0.7c0,0.2,0,0.5,0.1,0.7v0.2
				c0.1,0.6,0.2,1.3,0.3,1.9c0.1,0.7,0.2,1.4,0.3,2.2c0.2,1.2,0.3,2.4,0.5,3.6c0.3,2.6,0.7,5.3,1,8c1.3-1,2.6-1.9,3.9-2.9
				c1.1-0.8,2.2-1.5,3.4-2l0.1-0.1c2.5-1.1,5.1-2.2,7.6-3.3c0.2-0.1,0.4-0.2,0.6-0.2c1.5-0.5,3.1-0.4,4.5,0.2c0.6,0.3,1.3,0.6,2,1
				c2.7,1.8,4.3,4.3,5.2,8c0.2,1,0.5,2.9-1,4.9l-0.1,0.1c-1.5,1.8-2.9,3.6-4.3,5.4l-2.3,2.9l-0.1,0.1c-0.5,0.6-1,1-1.6,1.4
				c-4.3,3.1-8.8,6.3-13.2,9.4c-0.1,0.1-0.2,0.2-0.3,0.2c1.5,11.7,3.1,23.4,4.6,35.2c0.4,3.1,0.8,6.3,1.2,9.5
				c62.7,28.6,137,46.3,226.8,48.4c89.7,2.1,164.6-14.8,218.8-53C1074.9,1021.5,1085.6,990.5,1077.3,957.5z M676.2,884.1
				c-0.9,1.4-2.1,2.6-3.3,3.8c-1.4,1.4-2.9,2.8-4.4,4c0.4-0.3,0.7-0.6,1.1-0.9c0.2-0.2,0.5-0.4,0.7-0.7c0.4-0.4,0.9-0.8,1.3-1.2
				c0.4-0.4,0.8-0.8,1.2-1.2c1.2-1.2,2.3-2.3,3.2-3.7c0.4-0.6,0.8-1.3,1.2-1.9C677,883,676.6,883.5,676.2,884.1z M266.4,840.1
				C107,836.3-19.3,905.3,2.4,987.9c13.2,50.8,66.8,87.5,159.2,105.5c80.3,15.6,157.5,13.4,226.8-10.8c-1.3,0-2.6-0.6-3.8-1.2
				l-2.2-1l-0.2-2.4c-0.4-4.8,1.8-11.9,7.2-17.7c-0.7-0.7-4.4-3.9-5.5-4.9c-0.5-0.5-1-0.9-1.5-1.4c-5.7,2.4-12,4.6-17.9,6.9
				c-78.1,29.3-155.9,12.9-199.3-15.1c-38.4-25-52.4-54.1-48.6-85.9c2.1-17.6,8.8-35,23.6-51c24.9-26.9,64.4-42.7,123.7-42.8
				c59-0.1,105.9,12.7,137.2,38.3c25.7,21,44.9,44.1,70.2,65c7.1,5.8,10.5,11,10.4,15.9c1.4-1,2.7-2,4.1-3c1.6-1.2,3.2-2.3,4.8-3.5
				c1-0.8,2-1.6,3-2.5l0.1-0.1c0.8-0.7,1.7-1.4,2.5-2.1c-4.8-6-9.8-12-14.6-18c-0.5-0.6-0.9-1.2-1.3-1.8l-3.1,1.2l-2.3-2.6
				c-0.4-0.4-0.8-0.9-1.2-1.4L460,935.6c-1.5-1.7-2.9-3.3-4.4-5c-2.1-2.4-4.3-4.9-6.5-7.4c-1.8-2.1-2.1-3.6-1.3-6.2
				c0,0,0.1-0.4,0.2-0.5c-10.5-9.3-20.9-18.7-31.4-27.9l-4-3.6l4.4-3.2c0.6-0.4,1.2-0.8,1.7-1.2c3.3-2.3,6.7-4.7,10-7.2
				c0.5-0.4,1.1-0.7,1.6-0.9c1-0.3,2.5-0.5,4.2,0.3c2.2,1.1,4.3,2.1,6.5,3.1c1.5,0.7,3,1.4,4.4,2.2l27.2,13.2c1.3,0.6,2.6,1.2,4,1.8
				c2.6,1.2,5.3,2.3,8,3.4c2.6,1.1,5.3,2.3,8,3.4c2.3,1,4.7,2,7.1,3c2.3,1,4.7,2,7.1,3c1.9,0.8,3.9,1.7,5.8,2.5c2-1.5,4.1-3,6.3-4.5
				C452.2,865.6,370.7,842.6,266.4,840.1z"/>
		</g>
	</g>
	<g id="_x39_cv8yK.tif_2_">
		<g>
			<path fill="#6B6B6B" d="M679.3,876.4c-0.2,1.2-0.4,2.2-0.8,3.2c-0.3,0.9-0.7,1.8-1.2,2.6c0,0,0,0,0,0.1c-0.4,0.6-0.7,1.2-1.1,1.8
				c-0.9,1.4-2.1,2.6-3.3,3.8c-1.4,1.4-2.9,2.8-4.4,4c0,0-0.1,0.1-0.2,0.1c0,0-0.1,0.1-0.2,0.1l0,0c-0.1,0.1-0.3,0.2-0.4,0.4
				c-0.2,0.2-0.5,0.4-0.8,0.6l0,0c-0.7,0.5-1.4,1.1-2.1,1.6c-3.5,2.7-7.1,5.4-10.7,8.2c-1.4,1-2.8,2.1-4.2,3.2
				c-3.5,2.7-7.2,5.2-10.8,7.9c-7.5,5.4-14.9,11-22.5,16.4c-10,7.3-20.1,14.4-30,21.9c-0.8,0.6-1.5,1.2-2.3,1.7
				c-3.6,2.7-7.1,5.7-9.9,9.3c-0.7,0.9-1,1.7-0.8,2.7c0.1,0.7,0.2,1.3,0.3,2c0.2,1.4,0.4,2.7,0.6,4.1c0.5,3.9,1,8,1.5,11.9
				c0.2,1.9,0.7,3.7,1,5.6c0.1,0.4,0.3,0.7,0.4,1.1c0.3-0.2,0.4-0.3,0.6-0.4c2.9-2.2,5.8-4.4,8.8-6.7c0.8-0.6,1.6-1.1,2.5-1.5
				c2.6-1.1,5.2-2.2,7.8-3.4c0.5-0.2,1-0.3,1.6,0c0.5,0.2,1,0.4,1.5,0.7c1.9,1.3,2.8,3.1,3.4,5.3c0.1,0.5,0,0.8-0.3,1.2
				c-2.2,2.7-4.4,5.5-6.7,8.4c-0.2,0.3-0.5,0.5-0.8,0.7c-4.4,3.1-8.9,6.3-13.3,9.4c-0.8,0.6-1.7,1.2-2.5,1.8c0,0.6,0.1,1.1,0.2,1.6
				c1.6,12.1,3.2,24.1,4.7,36.2c0.3,2.2,0.6,4.4,0.9,6.8c2.2,16.5,4.3,33.1,6.6,49.6c0,0.1,0.1,0.3,0.2,0.4c0,0.1,0.1,0.2,0,0.3
				l-0.2,0.5c0,0.1-0.3,0.2-0.4,0.4c-3,2.5-5.9,5.1-8.9,7.7c-0.3,0.3-0.6,0.5-0.9,0.8c-0.3,0.3-0.6,0.5-1,0.9
				c-5.7-14.6-11.4-29.1-17-43.7c-1.5,0.3-2.9,0.6-4.3,0.9c-7.6-12-15-23.9-22.6-35.8c0.8-1,1.6-1.9,2.4-2.9
				c-1.4-2.2-2.8-4.3-4.2-6.6c-4.6-7.2-9.4-14.4-14-21.6c-0.2,0.1-0.3,0.1-0.4,0.2c-0.8,0.6-1.6,1.1-2.5,1.7
				c-4.2,2.7-8.6,5.4-12.9,8.3c-4.3,2.8-8.7,5.7-13.1,8.6c-5.9,3.8-11.9,7.7-17.8,11.6c-4.6,3.1-9.3,6.5-14,9.6
				c-7.4,4.8-14.7,9.6-22.1,14.4c-2.9,1.9-5.8,4-8.8,6c-0.5,0.4-0.6,0.7-0.5,1.3c0.1,0.7,0.3,1.4,0.3,2v0.1c1,8.7,2,17.3,2.9,26
				c0.6,5.5,1.2,11.1,1.9,16.7c0.1,0.5-0.1,0.8-0.4,1.2c-0.1,0.1-0.2,0.2-0.3,0.3l-0.1,0.1c-0.5,0.6-1,1.3-1.5,1.9
				c0.5-0.6,1-1.2,1.5-1.7c-0.7,0.8-1.6,2.3-2.2,3c-1.7,2-3.8,4.6-5.7,7l-0.1-0.3c0.3-0.3,0.6-0.6,0.9-1c0.3-0.3,0.5-0.6,0.8-0.9
				c-0.6,0.7-1.1,1.3-1.7,1.9h-0.1c-0.2-2.4-0.8-3.6-1.5-4.8c-0.2-0.4-0.5-0.9-0.7-1.4c-1.7-4-3.3-8.3-5-12.3
				c-2.2-5-4.3-10.2-6.6-15.2c-1.4-3.3-2.8-6.8-4.3-10.1c0-0.1-0.1-0.2-0.1-0.4v-0.1c-0.1-0.2-0.1-0.4-0.2-0.6
				c-0.9,0.4-1.7,0.8-2.6,1.2c-3.6,1.5-7.4,2.6-11.4,2.6c-2.1,0-4.2-0.4-6.2-1.3c-0.3-4.1,2-11.9,9.3-17.5c-3-2.7-6-5.4-9.1-8.2
				l-0.1-0.1c-3-2.7-5.9-5.3-9-8.1c-3-2.7-6-5.4-9.1-8.2c-3-2.7-6-5.4-9.2-8.3c1-0.5,2-0.9,2.9-1.3c3-1.3,5.9-2.6,9-3.9
				c0.4-0.2,0.7-0.2,1.1,0c2.1,1.1,4.4,2.2,6.6,3.2c2.8,1.4,5.7,2.8,8.6,4.2c3.5,1.7,7,3.4,10.5,5.1c3.2,1.5,6.4,3.1,9.6,4.6
				c1.1,0.6,2.2,1.1,3.4,1.6c0.6,0.3,1.3,0.6,2,1c0.4,0.2,0.8,0.2,1.2,0c0.9-0.6,1.8-1.1,2.6-1.8c2.8-2.3,5.5-4.7,8.5-7
				c2.5-2,5.1-4,7.7-6c9.8-7.5,19.6-14.9,29.4-22.3c5.3-4,10.7-8.1,16-12.2c1.3-1,2.6-2,3.9-3c3.5-2.6,7.1-5.1,10.5-7.8
				c1.1-0.9,2.2-1.8,3.3-2.8c1.7-1.4,3.4-2.9,5.1-4.4c0.2-0.2,0.4-0.4,0.6-0.6c-0.2-0.3-0.3-0.5-0.5-0.7
				c-5.5-6.9-11.2-13.8-16.7-20.7c-0.9-1.1-1.7-2.3-2.6-3.5c-0.2-0.3-0.4-0.5-0.6-0.8c-1.1,0.5-2.2,0.9-3.4,1.3
				c-0.5-0.5-1-1.1-1.5-1.7c-4.5-5.1-9-10.3-13.5-15.5c-3.6-4.1-7.3-8.3-10.9-12.5c-0.8-0.9-0.7-0.9-0.4-2.1c0.3-1,0.6-2,0.9-3.1
				c-11.1-9.9-22.3-19.9-33.5-29.8c0.6-0.5,1.2-0.8,1.7-1.2c3.3-2.3,6.7-4.7,9.9-7.2c0.5-0.3,0.9-0.4,1.4-0.2
				c3.6,1.8,7.3,3.5,10.9,5.3c4.5,2.2,9.1,4.4,13.6,6.6c4.5,2.2,9.1,4.4,13.6,6.6c1.4,0.6,2.8,1.3,4.2,1.9
				c5.2,2.3,10.6,4.5,15.9,6.9c4.7,2,9.5,4.1,14.1,6.2c2.5,1.1,4.9,2.1,7.4,3.2c0.5,0.2,0.9,0.2,1.4-0.2c3-2.2,6-4.4,9.1-6.7
				c1.7-1.2,3.4-2.4,5.1-3.7c0.3-0.3,0.7-0.5,1.2-0.7c3.1-1.4,6.3-2.8,9.3-4.2c0.5-0.2,0.8-0.2,1.3,0c1.3,0.5,2.3,1.4,3.2,2.5
				c1,1.3,1.6,2.7,1.9,4.2c0.1,0.3,0,0.6-0.2,0.9c-2.4,2.7-4.8,5.4-7.3,8.1c-0.2,0.2-0.5,0.5-0.8,0.7c-0.2,0.1-0.3,0.3-0.5,0.4
				c-2.7,2.1-5.4,4.1-8.2,6.3c-0.2,0.2-0.4,0.3-0.7,0.6c0.7,0.5,1.3,0.9,1.9,1.3c3.7,2.3,7.3,4.8,11,7.2c3.4,2.1,7,4.1,10.7,5.6
				c0.5,0.2,1.1,0.4,1.7,0.6c0.8,0.3,1.6,0.2,2.3-0.2c0.3-0.2,0.8-0.4,1.1-0.6c6.3-3.8,12.3-7.8,18-12.4c1-0.8,2.1-1.7,3.2-2.4
				c8.8-5.7,17.4-11.5,26.2-17.2c13.3-8.8,26.5-17.6,39.8-26.4c3.5-2.3,7.1-4.7,10.7-7.1c3.3-2.1,6.9-3.7,10.8-4.4
				c2.7-0.5,5.1,0,7.9,0.6c0.2,0,0.2,0.5,0.5,0.6l1.3,0.5c0.2,0.1,0.6-0.1,0.8,0C678.4,869.4,679.8,872.4,679.3,876.4z"/>
			<path fill="#6B6B6B" d="M427.1,1118.1c-0.3,0.3-0.5,0.6-0.8,0.9s-0.6,0.7-0.9,1C426,1119.4,426.6,1118.8,427.1,1118.1z"/>
			<path fill="#6B6B6B" d="M677.3,882.3c-0.3,0.7-0.7,1.3-1.2,1.9c-0.9,1.4-2.1,2.5-3.2,3.7c-0.4,0.4-0.8,0.8-1.2,1.2
				c-0.4,0.4-0.8,0.8-1.3,1.2c-0.2,0.2-0.5,0.5-0.7,0.7c-0.4,0.3-0.7,0.6-1.1,0.9c1.5-1.3,3-2.6,4.4-4c1.2-1.2,2.4-2.4,3.3-3.8
				C676.6,883.5,677,883,677.3,882.3z"/>
			<path fill="#6B6B6B" d="M427.1,1118.1c-0.3,0.3-0.5,0.6-0.8,0.9s-0.6,0.7-0.9,1C426,1119.4,426.6,1118.8,427.1,1118.1z"/>
			<path fill="#6B6B6B" d="M677.3,882.3c-0.3,0.7-0.7,1.3-1.2,1.9c-0.9,1.4-2.1,2.5-3.2,3.7c-0.4,0.4-0.8,0.8-1.2,1.2
				c-0.4,0.4-0.8,0.8-1.3,1.2c-0.2,0.2-0.5,0.5-0.7,0.7c-0.4,0.3-0.7,0.6-1.1,0.9c1.5-1.3,3-2.6,4.4-4c1.2-1.2,2.4-2.4,3.3-3.8
				C676.6,883.5,677,883,677.3,882.3z"/>
		</g>
	</g>
</g>
</svg>
