<!-- Generator: Adobe Illustrator 17.1.0, SVG Export Plug-In  -->
<svg version="1.2" baseProfile="tiny"
	 xmlns="http://www.w3.org/2000/svg" xmlns:xlink="http://www.w3.org/1999/xlink" xmlns:a="http://ns.adobe.com/AdobeSVGViewerExtensions/3.0/"
	 x="0px" y="0px" width="1071.171px" height="278.205px" viewBox="0 0 1071.171 278.205" xml:space="preserve">
<defs>
</defs>
<g>
	<g id="_x37_1d2Yo.tif_2_">
		<g>
			<path fill="#FFFFFF" d="M1068.54,116.755c-12.05-47.53-55.6-84.07-140.44-104.89c-59.52-14.69-122.21-13.99-185.04-7.31
				c-28.24,2.96-53.37,8.87-76.09,16.82c0.37,0.08,0.74,0.16,1.12,0.24l0.18,0.04c0.55,0.14,1.22,0.43,1.84,0.98
				c0.76,0.09,1.45,0.35,2.08,0.78l0.1,0.07l0.09,0.07c4.51,3.45,6.44,7.93,5.75,13.3c-0.24,1.54-0.54,2.84-0.93,4.04
				c-0.48,1.34-1.02,2.42-1.5,3.32c-0.38,0.74-0.84,1.52-1.41,2.36c-1.07,1.66-2.42,3-3.61,4.18l-0.18,0.19
				c-0.34,0.35-0.69,0.69-1.05,1.03c-0.36,0.35-0.72,0.69-1.09,1.03c27.48-12.77,58.67-22.54,95.19-25.35
				c62.39-4.87,113.77,6.52,151.44,33.08c28.03,19.72,36.32,42.98,39.78,66.86c0.31,2.28,0.46,4.56,0.61,6.84
				c1.5,23.65-4.52,46.51-29.39,66.94c-50.48,41.65-146.01,40.47-207.5,17.37c-29.68-11.08-51.53-25.93-69.46-42.2
				c-22.35-20.13-43.54-40.65-64.69-61.1c-0.69,0.52-1.38,1.04-2.07,1.56c-3.77,2.84-6.61,5.47-8.92,8.27
				c0.04,0.23,0.06,0.46,0.09,0.7c0.03,0.24,0.05,0.48,0.09,0.72l0.04,0.25c0.08,0.64,0.17,1.28,0.27,1.92
				c0.11,0.72,0.21,1.45,0.3,2.18c0.15,1.18,0.3,2.39,0.45,3.59c0.32,2.64,0.65,5.28,1.01,7.92c1.29-0.96,2.58-1.93,3.86-2.9
				c1.06-0.82,2.2-1.49,3.44-2.02l0.12-0.06c2.49-1.07,5.06-2.18,7.52-3.31c0.24-0.1,0.43-0.18,0.63-0.24
				c1.52-0.52,3.08-0.45,4.51,0.2c0.6,0.26,1.32,0.57,2.04,1.02c2.66,1.78,4.35,4.34,5.25,7.88c0.25,0.96,0.45,2.9-1.03,4.87
				l-0.09,0.11c-1.46,1.81-2.9,3.63-4.34,5.44l-2.28,2.88l-0.07,0.08c-0.49,0.55-1.01,1.02-1.6,1.43
				c-4.32,3.07-8.72,6.18-13.12,9.28c-0.11,0.08-0.23,0.16-0.35,0.25c1.54,11.62,3.08,23.24,4.59,34.88
				c0.41,3.12,0.83,6.24,1.23,9.36c62.22,28.35,135.87,45.9,224.96,48.05c89.05,2.12,163.34-14.69,216.99-52.56
				C1066.13,180.325,1076.83,149.525,1068.54,116.755z M670.74,44.035c-0.9,1.4-2.08,2.58-3.27,3.76c-1.39,1.42-2.87,2.75-4.39,4.04
				c0.37-0.3,0.73-0.61,1.09-0.92c0.25-0.2,0.49-0.42,0.74-0.65c0.44-0.38,0.86-0.77,1.28-1.17s0.84-0.81,1.25-1.22
				c1.18-1.18,2.35-2.31,3.25-3.71c0.42-0.63,0.82-1.27,1.16-1.94C671.49,42.855,671.12,43.445,670.74,44.035z M264.17,0.315
				c-158.08-3.69-283.3,64.66-261.75,146.61c13.11,50.37,66.3,86.76,157.92,104.6c79.64,15.47,156.17,13.33,225.03-10.67
				c-1.34,0-2.6-0.62-3.78-1.21l-2.19-1.03l-0.18-2.4c-0.37-4.75,1.77-11.77,7.09-17.63c-0.74-0.67-4.39-3.94-5.47-4.91
				c-0.51-0.46-1.02-0.91-1.53-1.37c-5.69,2.43-11.88,4.63-17.8,6.83c-77.45,29.15-154.61,12.81-197.7-15.01
				c-38.13-24.75-51.99-53.74-48.22-85.17c2.11-17.52,8.74-34.65,23.35-50.6c24.72-26.71,63.9-42.43,122.67-42.51
				c58.46-0.07,105.03,12.58,136.07,37.95c25.46,20.75,44.45,43.69,69.62,64.51c6.97,5.79,10.35,10.91,10.33,15.77
				c1.36-1.03,2.72-2.03,4.08-3.02c1.59-1.17,3.17-2.33,4.75-3.51c1-0.76,1.99-1.62,3.04-2.53l0.11-0.09
				c0.84-0.7,1.68-1.41,2.52-2.13c-4.84-5.97-9.68-11.95-14.49-17.94c-0.48-0.59-0.92-1.18-1.34-1.77l-3.12,1.21l-2.34-2.63
				c-0.4-0.45-0.81-0.91-1.2-1.37l-13.35-15.35c-1.45-1.65-2.9-3.32-4.36-4.99c-2.14-2.45-4.28-4.9-6.43-7.35
				c-1.76-2.11-2.07-3.64-1.28-6.13c0,0,0.12-0.4,0.16-0.52c-10.36-9.23-20.73-18.47-31.15-27.72l-4.04-3.59l4.38-3.17
				c0.62-0.44,1.16-0.83,1.69-1.22c3.27-2.33,6.61-4.7,9.85-7.07c0.55-0.39,1.07-0.67,1.62-0.86c0.96-0.32,2.47-0.54,4.21,0.3
				c2.17,1.08,4.28,2.11,6.38,3.13c1.48,0.71,2.95,1.43,4.41,2.15l26.99,13.09c1.27,0.59,2.63,1.2,4,1.77
				c2.65,1.16,5.27,2.28,7.89,3.4c2.63,1.13,5.27,2.26,7.9,3.4c2.34,1,4.69,2.02,7.04,3.04c2.34,1.01,4.67,2.02,6.99,3.02
				c1.94,0.84,3.87,1.68,5.77,2.52c2.05-1.49,4.1-2.98,6.15-4.45C448.5,25.575,367.71,2.765,264.17,0.315z"/>
		</g>
	</g>
	<g id="_x39_cv8yK.tif_2_">
		<g>
			<path d="M673.83,36.295c-0.17,1.15-0.41,2.23-0.75,3.24c-0.33,0.92-0.74,1.78-1.19,2.61c-0.01,0.03-0.03,0.05-0.04,0.08
				c-0.36,0.63-0.73,1.22-1.11,1.81c-0.9,1.4-2.08,2.58-3.27,3.76c-1.39,1.42-2.87,2.75-4.39,4.04c-0.05,0.04-0.1,0.08-0.15,0.12
				c-0.05,0.04-0.1,0.08-0.15,0.13c-0.01,0-0.02,0.01-0.03,0.02c-0.14,0.11-0.29,0.25-0.43,0.36c-0.25,0.22-0.51,0.42-0.77,0.63
				c-0.01,0.01-0.01,0.01-0.02,0.02c-0.68,0.53-1.38,1.08-2.07,1.62c-3.54,2.69-7.04,5.42-10.56,8.12
				c-1.38,1.05-2.76,2.11-4.15,3.15c-3.54,2.68-7.14,5.24-10.74,7.84c-7.44,5.43-14.82,10.89-22.28,16.28
				c-9.93,7.2-19.93,14.34-29.77,21.7c-0.76,0.57-1.53,1.15-2.29,1.72c-3.61,2.72-6.99,5.69-9.84,9.19
				c-0.71,0.86-1.02,1.66-0.83,2.71c0.12,0.67,0.15,1.34,0.27,2.01c0.16,1.38,0.4,2.73,0.57,4.11c0.49,3.92,0.95,7.85,1.5,11.8
				c0.25,1.85,0.66,3.74,1.04,5.58c0.06,0.37,0.26,0.7,0.4,1.11c0.26-0.18,0.4-0.27,0.56-0.36c2.9-2.21,5.85-4.39,8.74-6.6
				c0.79-0.6,1.62-1.09,2.53-1.48c2.59-1.12,5.19-2.24,7.74-3.41c0.54-0.24,1.05-0.27,1.57-0.02c0.5,0.21,1.03,0.44,1.47,0.72
				c1.9,1.27,2.83,3.12,3.38,5.29c0.12,0.46,0,0.81-0.29,1.19c-2.22,2.74-4.38,5.5-6.57,8.26c-0.24,0.27-0.5,0.5-0.81,0.72
				c-4.37,3.11-8.76,6.21-13.16,9.31c-0.81,0.59-1.65,1.17-2.46,1.76c0.05,0.55,0.11,1.08,0.18,1.57
				c1.58,11.96,3.17,23.92,4.72,35.89c0.3,2.22,0.59,4.44,0.88,6.66c2.17,16.4,4.29,32.79,6.45,49.19c0.04,0.12,0.11,0.27,0.15,0.38
				c0.05,0.11,0.06,0.24,0.02,0.32l-0.19,0.45c-0.05,0.13-0.31,0.21-0.43,0.35c-2.97,2.54-5.86,5.1-8.77,7.64
				c-0.31,0.28-0.6,0.53-0.91,0.8c-0.3,0.28-0.63,0.55-0.95,0.85c-5.66-14.49-11.27-28.87-16.9-43.28c-1.5,0.3-2.91,0.61-4.35,0.9
				c-7.49-11.86-14.91-23.66-22.36-35.48c0.82-0.96,1.59-1.91,2.37-2.86c-1.4-2.16-2.8-4.32-4.2-6.47
				c-4.64-7.14-9.28-14.26-13.9-21.39c-0.16,0.09-0.27,0.14-0.39,0.18c-0.8,0.57-1.62,1.12-2.45,1.68
				c-4.24,2.73-8.53,5.43-12.76,8.2c-4.34,2.81-8.63,5.67-12.97,8.49c-5.89,3.84-11.82,7.6-17.7,11.48
				c-4.65,3.11-9.2,6.43-13.87,9.5c-7.27,4.82-14.64,9.5-21.94,14.3c-2.94,1.94-5.8,3.98-8.69,5.96c-0.52,0.35-0.6,0.7-0.54,1.29
				c0.08,0.68,0.26,1.35,0.27,2.03v0.07c1,8.61,1.95,17.21,2.94,25.79c0.64,5.5,1.24,11.04,1.9,16.56c0.06,0.46-0.07,0.81-0.38,1.18
				c-0.11,0.11-0.23,0.22-0.31,0.34c-0.04,0.04-0.08,0.09-0.12,0.14c-0.47,0.56-0.99,1.27-1.45,1.85c0.48-0.57,0.99-1.23,1.45-1.7
				c-0.67,0.78-1.65,2.34-2.24,3c-1.74,1.98-3.78,4.59-5.66,6.91l-0.4-0.17c0.29-0.31,0.59-0.65,0.89-0.99
				c0.26-0.3,0.52-0.62,0.78-0.93c-0.57,0.67-1.13,1.32-1.67,1.92l-0.13-0.05c-0.17-2.36-0.81-3.56-1.45-4.75
				c-0.24-0.44-0.47-0.87-0.68-1.36c-1.72-3.97-3.32-8.23-5.04-12.2c-2.19-5.01-4.3-10.11-6.49-15.12c-1.4-3.3-2.82-6.68-4.26-9.97
				c-0.05-0.12-0.1-0.24-0.15-0.37c-0.01-0.04-0.03-0.08-0.05-0.12c-0.06-0.19-0.14-0.39-0.22-0.59c-0.89,0.4-1.74,0.79-2.59,1.18
				c-3.6,1.51-7.31,2.56-11.28,2.56c-2.12,0.01-4.18-0.36-6.1-1.33c-0.32-4.12,2.04-11.76,9.17-17.36
				c-2.97-2.71-5.98-5.39-8.96-8.08c-0.04-0.04-0.08-0.07-0.12-0.11c-2.96-2.67-5.93-5.34-8.9-7.98c-2.98-2.69-5.96-5.38-8.95-8.05
				c-2.98-2.69-5.98-5.4-9.08-8.17c1.04-0.47,1.97-0.89,2.88-1.28c2.96-1.33,5.92-2.64,8.87-3.95c0.39-0.18,0.71-0.2,1.1-0.01
				c2.15,1.1,4.35,2.16,6.53,3.2c2.84,1.39,5.7,2.82,8.55,4.2c3.46,1.69,6.93,3.37,10.38,5.08c3.17,1.54,6.34,3.09,9.5,4.63
				c1.13,0.55,2.25,1.1,3.38,1.65c0.65,0.31,1.32,0.63,1.95,0.98c0.44,0.22,0.84,0.23,1.23-0.04c0.85-0.6,1.76-1.13,2.57-1.78
				c2.81-2.3,5.55-4.67,8.36-6.94c2.51-2.03,5.06-4.01,7.63-5.98c9.71-7.38,19.43-14.77,29.16-22.15c5.3-4.02,10.6-8.04,15.9-12.06
				c1.31-0.99,2.62-1.99,3.93-2.98c3.47-2.62,6.97-5.13,10.43-7.72c1.15-0.86,2.23-1.8,3.32-2.75c1.72-1.42,3.4-2.89,5.11-4.35
				c0.19-0.17,0.37-0.38,0.58-0.57c-0.17-0.26-0.33-0.48-0.48-0.7c-5.53-6.83-11.07-13.66-16.56-20.5c-0.92-1.14-1.72-2.35-2.6-3.53
				c-0.17-0.26-0.35-0.49-0.56-0.8c-1.13,0.46-2.25,0.89-3.44,1.35c-0.49-0.54-1-1.1-1.47-1.68c-4.48-5.13-8.92-10.25-13.39-15.38
				c-3.6-4.11-7.18-8.25-10.81-12.36c-0.76-0.92-0.74-0.91-0.37-2.07c0.33-1.01,0.61-2.04,0.94-3.12
				c-11.05-9.85-22.1-19.69-33.21-29.56c0.63-0.45,1.17-0.85,1.71-1.24c3.3-2.35,6.6-4.7,9.84-7.07c0.5-0.35,0.86-0.41,1.41-0.15
				c3.58,1.79,7.19,3.5,10.75,5.26c4.5,2.18,9,4.36,13.5,6.55c4.51,2.18,9.01,4.36,13.51,6.55c1.38,0.64,2.8,1.27,4.2,1.86
				c5.24,2.28,10.51,4.51,15.75,6.78c4.7,2.02,9.38,4.06,14.05,6.07c2.45,1.07,4.9,2.13,7.31,3.21c0.53,0.23,0.9,0.16,1.36-0.17
				c3-2.19,6.02-4.38,9.04-6.56c1.69-1.22,3.38-2.44,5.07-3.66c0.35-0.26,0.74-0.5,1.15-0.67c3.06-1.42,6.15-2.82,9.21-4.24
				c0.47-0.21,0.81-0.22,1.26-0.03c1.31,0.52,2.33,1.36,3.17,2.46c0.96,1.28,1.57,2.72,1.92,4.24c0.1,0.35,0.04,0.64-0.2,0.91
				c-2.41,2.69-4.82,5.36-7.22,8.02c-0.23,0.25-0.48,0.48-0.76,0.68c-0.17,0.13-0.33,0.26-0.5,0.38c-2.7,2.09-5.42,4.14-8.14,6.19
				c-0.19,0.17-0.41,0.33-0.69,0.55c0.67,0.47,1.27,0.88,1.91,1.31c3.65,2.35,7.24,4.77,10.94,7.08c3.4,2.13,6.92,4.05,10.63,5.62
				c0.55,0.23,1.14,0.39,1.71,0.6c0.8,0.31,1.56,0.22,2.33-0.2c0.33-0.21,0.75-0.37,1.09-0.6c6.18-3.78,12.25-7.73,17.92-12.29
				c1.04-0.84,2.13-1.66,3.25-2.4c8.66-5.72,17.33-11.41,25.99-17.14c13.16-8.72,26.33-17.46,39.5-26.18
				c3.51-2.35,7.04-4.72,10.61-7.05c3.27-2.11,6.8-3.68,10.65-4.39c2.67-0.49,5.12-0.01,7.83,0.57c0.2,0.05,0.24,0.48,0.45,0.57
				l1.3,0.54c0.24,0.1,0.58-0.12,0.82,0.04C672.92,29.435,674.34,32.365,673.83,36.295z"/>
			<path d="M423.65,276.115c-0.26,0.31-0.52,0.63-0.78,0.93c-0.3,0.34-0.6,0.68-0.89,0.99
				C422.52,277.435,423.08,276.785,423.65,276.115z"/>
			<path d="M671.85,42.225c-0.34,0.67-0.74,1.31-1.16,1.94c-0.9,1.4-2.07,2.53-3.25,3.71c-0.41,0.41-0.83,0.82-1.25,1.22
				s-0.84,0.79-1.28,1.17c-0.25,0.23-0.49,0.45-0.74,0.65c-0.36,0.31-0.72,0.62-1.09,0.92c1.52-1.29,3-2.62,4.39-4.04
				c1.19-1.18,2.37-2.36,3.27-3.76C671.12,43.445,671.49,42.855,671.85,42.225z"/>
			<path d="M423.65,276.115c-0.26,0.31-0.52,0.63-0.78,0.93c-0.3,0.34-0.6,0.68-0.89,0.99
				C422.52,277.435,423.08,276.785,423.65,276.115z"/>
			<path d="M671.85,42.225c-0.34,0.67-0.74,1.31-1.16,1.94c-0.9,1.4-2.07,2.53-3.25,3.71c-0.41,0.41-0.83,0.82-1.25,1.22
				s-0.84,0.79-1.28,1.17c-0.25,0.23-0.49,0.45-0.74,0.65c-0.36,0.31-0.72,0.62-1.09,0.92c1.52-1.29,3-2.62,4.39-4.04
				c1.19-1.18,2.37-2.36,3.27-3.76C671.12,43.445,671.49,42.855,671.85,42.225z"/>
		</g>
	</g>
</g>
</svg>