<?xml version="1.0" encoding="utf-8"?>
<!-- Generator: Adobe Illustrator 17.1.0, SVG Export Plug-In . SVG Version: 6.00 Build 0)  -->
<!DOCTYPE svg PUBLIC "-//W3C//DTD SVG 1.1//EN" "http://www.w3.org/Graphics/SVG/1.1/DTD/svg11.dtd">
<svg version="1.1" id="Layer_1" xmlns="http://www.w3.org/2000/svg" xmlns:xlink="http://www.w3.org/1999/xlink" x="0px" y="0px"
	 viewBox="0 0 1071.2 278.2" enable-background="new 0 0 1071.2 278.2" xml:space="preserve">
<g>
	<g id="_x37_1d2Yo.tif_2_">
		<g>
			<path d="M1068.5,116.8c-12.1-47.5-55.6-84.1-140.4-104.9c-59.5-14.7-122.2-14-185-7.3c-28.2,3-53.4,8.9-76.1,16.8
				c0.4,0.1,0.7,0.2,1.1,0.2l0.2,0c0.5,0.1,1.2,0.4,1.8,1c0.8,0.1,1.5,0.4,2.1,0.8l0.1,0.1l0.1,0.1c4.5,3.5,6.4,7.9,5.8,13.3
				c-0.2,1.5-0.5,2.8-0.9,4c-0.5,1.3-1,2.4-1.5,3.3c-0.4,0.7-0.8,1.5-1.4,2.4c-1.1,1.7-2.4,3-3.6,4.2l-0.2,0.2c-0.3,0.3-0.7,0.7-1,1
				c-0.4,0.3-0.7,0.7-1.1,1c27.5-12.8,58.7-22.5,95.2-25.4c62.4-4.9,113.8,6.5,151.4,33.1c28,19.7,36.3,43,39.8,66.9
				c0.3,2.3,0.5,4.6,0.6,6.8c1.5,23.6-4.5,46.5-29.4,66.9c-50.5,41.6-146,40.5-207.5,17.4c-29.7-11.1-51.5-25.9-69.5-42.2
				c-22.3-20.1-43.5-40.7-64.7-61.1c-0.7,0.5-1.4,1-2.1,1.6c-3.8,2.8-6.6,5.5-8.9,8.3c0,0.2,0.1,0.5,0.1,0.7s0,0.5,0.1,0.7l0,0.2
				c0.1,0.6,0.2,1.3,0.3,1.9c0.1,0.7,0.2,1.4,0.3,2.2c0.2,1.2,0.3,2.4,0.5,3.6c0.3,2.6,0.7,5.3,1,7.9c1.3-1,2.6-1.9,3.9-2.9
				c1.1-0.8,2.2-1.5,3.4-2l0.1-0.1c2.5-1.1,5.1-2.2,7.5-3.3c0.2-0.1,0.4-0.2,0.6-0.2c1.5-0.5,3.1-0.4,4.5,0.2c0.6,0.3,1.3,0.6,2,1
				c2.7,1.8,4.3,4.3,5.2,7.9c0.2,1,0.5,2.9-1,4.9l-0.1,0.1c-1.5,1.8-2.9,3.6-4.3,5.4l-2.3,2.9l-0.1,0.1c-0.5,0.6-1,1-1.6,1.4
				c-4.3,3.1-8.7,6.2-13.1,9.3c-0.1,0.1-0.2,0.2-0.3,0.2c1.5,11.6,3.1,23.2,4.6,34.9c0.4,3.1,0.8,6.2,1.2,9.4
				c62.2,28.4,135.9,45.9,225,48c89,2.1,163.3-14.7,217-52.6C1066.1,180.3,1076.8,149.5,1068.5,116.8z M670.7,44
				c-0.9,1.4-2.1,2.6-3.3,3.8c-1.4,1.4-2.9,2.8-4.4,4c0.4-0.3,0.7-0.6,1.1-0.9c0.2-0.2,0.5-0.4,0.7-0.7c0.4-0.4,0.9-0.8,1.3-1.2
				s0.8-0.8,1.2-1.2c1.2-1.2,2.3-2.3,3.2-3.7c0.4-0.6,0.8-1.3,1.2-1.9C671.5,42.9,671.1,43.4,670.7,44z M264.2,0.3
				C106.1-3.4-19.1,65,2.4,146.9c13.1,50.4,66.3,86.8,157.9,104.6c79.6,15.5,156.2,13.3,225-10.7c-1.3,0-2.6-0.6-3.8-1.2l-2.2-1
				l-0.2-2.4c-0.4-4.8,1.8-11.8,7.1-17.6c-0.7-0.7-4.4-3.9-5.5-4.9c-0.5-0.5-1-0.9-1.5-1.4c-5.7,2.4-11.9,4.6-17.8,6.8
				c-77.5,29.1-154.6,12.8-197.7-15c-38.1-24.8-52-53.7-48.2-85.2c2.1-17.5,8.7-34.7,23.4-50.6c24.7-26.7,63.9-42.4,122.7-42.5
				c58.5-0.1,105,12.6,136.1,38c25.5,20.8,44.5,43.7,69.6,64.5c7,5.8,10.4,10.9,10.3,15.8c1.4-1,2.7-2,4.1-3
				c1.6-1.2,3.2-2.3,4.8-3.5c1-0.8,2-1.6,3-2.5l0.1-0.1c0.8-0.7,1.7-1.4,2.5-2.1c-4.8-6-9.7-11.9-14.5-17.9
				c-0.5-0.6-0.9-1.2-1.3-1.8l-3.1,1.2l-2.3-2.6c-0.4-0.4-0.8-0.9-1.2-1.4l-13.4-15.3c-1.5-1.7-2.9-3.3-4.4-5
				c-2.1-2.4-4.3-4.9-6.4-7.3c-1.8-2.1-2.1-3.6-1.3-6.1c0,0,0.1-0.4,0.2-0.5c-10.4-9.2-20.7-18.5-31.1-27.7l-4-3.6l4.4-3.2
				c0.6-0.4,1.2-0.8,1.7-1.2c3.3-2.3,6.6-4.7,9.9-7.1c0.5-0.4,1.1-0.7,1.6-0.9c1-0.3,2.5-0.5,4.2,0.3c2.2,1.1,4.3,2.1,6.4,3.1
				c1.5,0.7,3,1.4,4.4,2.2l27,13.1c1.3,0.6,2.6,1.2,4,1.8c2.6,1.2,5.3,2.3,7.9,3.4c2.6,1.1,5.3,2.3,7.9,3.4c2.3,1,4.7,2,7,3
				c2.3,1,4.7,2,7,3c1.9,0.8,3.9,1.7,5.8,2.5c2-1.5,4.1-3,6.2-4.5C448.5,25.6,367.7,2.8,264.2,0.3z"/>
		</g>
	</g>
	<g id="_x39_cv8yK.tif_2_">
		<g>
			<path fill="#6B6B6B" d="M673.8,36.3c-0.2,1.2-0.4,2.2-0.8,3.2c-0.3,0.9-0.7,1.8-1.2,2.6c0,0,0,0,0,0.1c-0.4,0.6-0.7,1.2-1.1,1.8
				c-0.9,1.4-2.1,2.6-3.3,3.8c-1.4,1.4-2.9,2.8-4.4,4c0,0-0.1,0.1-0.2,0.1c0,0-0.1,0.1-0.2,0.1c0,0,0,0,0,0
				c-0.1,0.1-0.3,0.2-0.4,0.4c-0.2,0.2-0.5,0.4-0.8,0.6c0,0,0,0,0,0c-0.7,0.5-1.4,1.1-2.1,1.6c-3.5,2.7-7,5.4-10.6,8.1
				c-1.4,1-2.8,2.1-4.2,3.2c-3.5,2.7-7.1,5.2-10.7,7.8c-7.4,5.4-14.8,10.9-22.3,16.3c-9.9,7.2-19.9,14.3-29.8,21.7
				c-0.8,0.6-1.5,1.2-2.3,1.7c-3.6,2.7-7,5.7-9.8,9.2c-0.7,0.9-1,1.7-0.8,2.7c0.1,0.7,0.2,1.3,0.3,2c0.2,1.4,0.4,2.7,0.6,4.1
				c0.5,3.9,1,7.9,1.5,11.8c0.2,1.9,0.7,3.7,1,5.6c0.1,0.4,0.3,0.7,0.4,1.1c0.3-0.2,0.4-0.3,0.6-0.4c2.9-2.2,5.8-4.4,8.7-6.6
				c0.8-0.6,1.6-1.1,2.5-1.5c2.6-1.1,5.2-2.2,7.7-3.4c0.5-0.2,1-0.3,1.6,0c0.5,0.2,1,0.4,1.5,0.7c1.9,1.3,2.8,3.1,3.4,5.3
				c0.1,0.5,0,0.8-0.3,1.2c-2.2,2.7-4.4,5.5-6.6,8.3c-0.2,0.3-0.5,0.5-0.8,0.7c-4.4,3.1-8.8,6.2-13.2,9.3c-0.8,0.6-1.7,1.2-2.5,1.8
				c0,0.6,0.1,1.1,0.2,1.6c1.6,12,3.2,23.9,4.7,35.9c0.3,2.2,0.6,4.4,0.9,6.7c2.2,16.4,4.3,32.8,6.5,49.2c0,0.1,0.1,0.3,0.2,0.4
				c0,0.1,0.1,0.2,0,0.3l-0.2,0.5c0,0.1-0.3,0.2-0.4,0.4c-3,2.5-5.9,5.1-8.8,7.6c-0.3,0.3-0.6,0.5-0.9,0.8c-0.3,0.3-0.6,0.5-1,0.9
				c-5.7-14.5-11.3-28.9-16.9-43.3c-1.5,0.3-2.9,0.6-4.3,0.9c-7.5-11.9-14.9-23.7-22.4-35.5c0.8-1,1.6-1.9,2.4-2.9
				c-1.4-2.2-2.8-4.3-4.2-6.5c-4.6-7.1-9.3-14.3-13.9-21.4c-0.2,0.1-0.3,0.1-0.4,0.2c-0.8,0.6-1.6,1.1-2.5,1.7
				c-4.2,2.7-8.5,5.4-12.8,8.2c-4.3,2.8-8.6,5.7-13,8.5c-5.9,3.8-11.8,7.6-17.7,11.5c-4.6,3.1-9.2,6.4-13.9,9.5
				c-7.3,4.8-14.6,9.5-21.9,14.3c-2.9,1.9-5.8,4-8.7,6c-0.5,0.4-0.6,0.7-0.5,1.3c0.1,0.7,0.3,1.4,0.3,2v0.1c1,8.6,2,17.2,2.9,25.8
				c0.6,5.5,1.2,11,1.9,16.6c0.1,0.5-0.1,0.8-0.4,1.2c-0.1,0.1-0.2,0.2-0.3,0.3c0,0-0.1,0.1-0.1,0.1c-0.5,0.6-1,1.3-1.5,1.9
				c0.5-0.6,1-1.2,1.5-1.7c-0.7,0.8-1.6,2.3-2.2,3c-1.7,2-3.8,4.6-5.7,6.9L422,278c0.3-0.3,0.6-0.6,0.9-1c0.3-0.3,0.5-0.6,0.8-0.9
				c-0.6,0.7-1.1,1.3-1.7,1.9l-0.1,0c-0.2-2.4-0.8-3.6-1.5-4.8c-0.2-0.4-0.5-0.9-0.7-1.4c-1.7-4-3.3-8.2-5-12.2
				c-2.2-5-4.3-10.1-6.5-15.1c-1.4-3.3-2.8-6.7-4.3-10c0-0.1-0.1-0.2-0.1-0.4c0,0,0-0.1,0-0.1c-0.1-0.2-0.1-0.4-0.2-0.6
				c-0.9,0.4-1.7,0.8-2.6,1.2c-3.6,1.5-7.3,2.6-11.3,2.6c-2.1,0-4.2-0.4-6.1-1.3c-0.3-4.1,2-11.8,9.2-17.4c-3-2.7-6-5.4-9-8.1
				c0,0-0.1-0.1-0.1-0.1c-3-2.7-5.9-5.3-8.9-8c-3-2.7-6-5.4-9-8.1c-3-2.7-6-5.4-9.1-8.2c1-0.5,2-0.9,2.9-1.3c3-1.3,5.9-2.6,8.9-3.9
				c0.4-0.2,0.7-0.2,1.1,0c2.1,1.1,4.4,2.2,6.5,3.2c2.8,1.4,5.7,2.8,8.5,4.2c3.5,1.7,6.9,3.4,10.4,5.1c3.2,1.5,6.3,3.1,9.5,4.6
				c1.1,0.6,2.2,1.1,3.4,1.6c0.6,0.3,1.3,0.6,2,1c0.4,0.2,0.8,0.2,1.2,0c0.9-0.6,1.8-1.1,2.6-1.8c2.8-2.3,5.5-4.7,8.4-6.9
				c2.5-2,5.1-4,7.6-6c9.7-7.4,19.4-14.8,29.2-22.1c5.3-4,10.6-8,15.9-12.1c1.3-1,2.6-2,3.9-3c3.5-2.6,7-5.1,10.4-7.7
				c1.1-0.9,2.2-1.8,3.3-2.8c1.7-1.4,3.4-2.9,5.1-4.4c0.2-0.2,0.4-0.4,0.6-0.6c-0.2-0.3-0.3-0.5-0.5-0.7
				c-5.5-6.8-11.1-13.7-16.6-20.5c-0.9-1.1-1.7-2.3-2.6-3.5c-0.2-0.3-0.4-0.5-0.6-0.8c-1.1,0.5-2.2,0.9-3.4,1.3
				c-0.5-0.5-1-1.1-1.5-1.7c-4.5-5.1-8.9-10.2-13.4-15.4c-3.6-4.1-7.2-8.2-10.8-12.4c-0.8-0.9-0.7-0.9-0.4-2.1c0.3-1,0.6-2,0.9-3.1
				c-11-9.8-22.1-19.7-33.2-29.6c0.6-0.5,1.2-0.8,1.7-1.2c3.3-2.3,6.6-4.7,9.8-7.1c0.5-0.3,0.9-0.4,1.4-0.2
				c3.6,1.8,7.2,3.5,10.8,5.3c4.5,2.2,9,4.4,13.5,6.5c4.5,2.2,9,4.4,13.5,6.5c1.4,0.6,2.8,1.3,4.2,1.9c5.2,2.3,10.5,4.5,15.8,6.8
				c4.7,2,9.4,4.1,14,6.1c2.5,1.1,4.9,2.1,7.3,3.2c0.5,0.2,0.9,0.2,1.4-0.2c3-2.2,6-4.4,9-6.6c1.7-1.2,3.4-2.4,5.1-3.7
				c0.3-0.3,0.7-0.5,1.2-0.7c3.1-1.4,6.2-2.8,9.2-4.2c0.5-0.2,0.8-0.2,1.3,0c1.3,0.5,2.3,1.4,3.2,2.5c1,1.3,1.6,2.7,1.9,4.2
				c0.1,0.3,0,0.6-0.2,0.9c-2.4,2.7-4.8,5.4-7.2,8c-0.2,0.2-0.5,0.5-0.8,0.7c-0.2,0.1-0.3,0.3-0.5,0.4c-2.7,2.1-5.4,4.1-8.1,6.2
				c-0.2,0.2-0.4,0.3-0.7,0.6c0.7,0.5,1.3,0.9,1.9,1.3c3.7,2.3,7.2,4.8,10.9,7.1c3.4,2.1,6.9,4.1,10.6,5.6c0.5,0.2,1.1,0.4,1.7,0.6
				c0.8,0.3,1.6,0.2,2.3-0.2c0.3-0.2,0.8-0.4,1.1-0.6c6.2-3.8,12.2-7.7,17.9-12.3c1-0.8,2.1-1.7,3.2-2.4c8.7-5.7,17.3-11.4,26-17.1
				c13.2-8.7,26.3-17.5,39.5-26.2c3.5-2.3,7-4.7,10.6-7c3.3-2.1,6.8-3.7,10.7-4.4c2.7-0.5,5.1,0,7.8,0.6c0.2,0,0.2,0.5,0.5,0.6
				l1.3,0.5c0.2,0.1,0.6-0.1,0.8,0C672.9,29.4,674.3,32.4,673.8,36.3z"/>
			<path fill="#6B6B6B" d="M423.6,276.1c-0.3,0.3-0.5,0.6-0.8,0.9c-0.3,0.3-0.6,0.7-0.9,1C422.5,277.4,423.1,276.8,423.6,276.1z"/>
			<path fill="#6B6B6B" d="M671.8,42.2c-0.3,0.7-0.7,1.3-1.2,1.9c-0.9,1.4-2.1,2.5-3.2,3.7c-0.4,0.4-0.8,0.8-1.2,1.2
				s-0.8,0.8-1.3,1.2c-0.2,0.2-0.5,0.5-0.7,0.7c-0.4,0.3-0.7,0.6-1.1,0.9c1.5-1.3,3-2.6,4.4-4c1.2-1.2,2.4-2.4,3.3-3.8
				C671.1,43.4,671.5,42.9,671.8,42.2z"/>
			<path fill="#6B6B6B" d="M423.6,276.1c-0.3,0.3-0.5,0.6-0.8,0.9c-0.3,0.3-0.6,0.7-0.9,1C422.5,277.4,423.1,276.8,423.6,276.1z"/>
			<path fill="#6B6B6B" d="M671.8,42.2c-0.3,0.7-0.7,1.3-1.2,1.9c-0.9,1.4-2.1,2.5-3.2,3.7c-0.4,0.4-0.8,0.8-1.2,1.2
				s-0.8,0.8-1.3,1.2c-0.2,0.2-0.5,0.5-0.7,0.7c-0.4,0.3-0.7,0.6-1.1,0.9c1.5-1.3,3-2.6,4.4-4c1.2-1.2,2.4-2.4,3.3-3.8
				C671.1,43.4,671.5,42.9,671.8,42.2z"/>
		</g>
	</g>
</g>
</svg>
